<?xml version="1.0" encoding="UTF-8" standalone="no"?><!-- Generator: Gravit.io --><svg xmlns="http://www.w3.org/2000/svg" xmlns:xlink="http://www.w3.org/1999/xlink" style="isolation:isolate" viewBox="0 0 800.2 237.5" width="800.2pt" height="237.5pt"><defs><clipPath id="_clipPath_jV2GjvghiszydyY6OJoFD08F9mwFskua"><rect width="800.2" height="237.5"/></clipPath></defs><g clip-path="url(#_clipPath_jV2GjvghiszydyY6OJoFD08F9mwFskua)"><g><path d=" M 770.653 237.48 L 29.727 237.48 C 13.427 237.48 0.09 224.122 0.09 207.795 L 0.09 29.685 C 0.09 13.358 13.427 0 29.727 0 L 770.653 0 C 786.953 0 800.29 13.358 800.29 29.685 L 800.29 207.795 C 800.29 224.122 786.953 237.48 770.653 237.48" fill="rgb(0,0,0)"/><path d=" M 770.653 0 L 29.727 0 C 13.427 0 0.09 13.358 0.09 29.685 L 0.09 207.795 C 0.09 224.122 13.427 237.48 29.727 237.48 L 770.653 237.48 C 786.953 237.48 800.29 224.122 800.29 207.795 L 800.29 29.685 C 800.29 13.358 786.954 0 770.653 0 M 770.653 4.749 C 784.381 4.749 795.548 15.937 795.548 29.685 L 795.548 207.795 C 795.548 221.545 784.381 232.733 770.653 232.733 L 29.727 232.733 C 16.002 232.733 4.832 221.545 4.832 207.795 L 4.832 29.685 C 4.832 15.937 16.002 4.75 29.727 4.75 L 770.653 4.75" fill="rgb(166,166,166)"/><path d=" M 281.159 60.815 C 281.159 65.789 279.688 69.75 276.743 72.705 C 273.397 76.218 269.037 77.977 263.677 77.977 C 258.543 77.977 254.179 76.196 250.59 72.628 C 246.995 69.064 245.2 64.644 245.2 59.37 C 245.2 54.094 246.995 49.676 250.59 46.109 C 254.179 42.545 258.543 40.761 263.677 40.761 C 266.224 40.761 268.662 41.26 270.977 42.255 C 273.293 43.252 275.15 44.576 276.539 46.234 L 273.413 49.367 C 271.059 46.55 267.817 45.142 263.677 45.142 C 259.933 45.142 256.696 46.459 253.964 49.096 C 251.231 51.736 249.866 55.158 249.866 59.37 C 249.866 63.582 251.231 67.004 253.964 69.644 C 256.696 72.281 259.933 73.598 263.677 73.598 C 267.648 73.598 270.959 72.273 273.61 69.621 C 275.331 67.893 276.326 65.49 276.592 62.406 L 263.676 62.406 L 263.676 58.127 L 280.91 58.127 C 281.077 59.057 281.158 59.95 281.158 60.815" fill="rgb(255,255,255)"/><path d=" M 281.159 60.815 L 280.566 60.815 C 280.561 65.676 279.144 69.451 276.323 72.285 L 276.317 72.29 L 276.314 72.295 C 273.075 75.687 268.911 77.376 263.676 77.383 C 258.68 77.376 254.498 75.669 251.007 72.209 C 247.522 68.742 245.799 64.509 245.793 59.37 C 245.799 54.229 247.522 49.998 251.007 46.534 C 254.498 43.071 258.68 41.362 263.676 41.355 C 266.147 41.355 268.5 41.838 270.743 42.8 C 272.989 43.769 274.763 45.04 276.085 46.617 L 276.539 46.234 L 276.12 45.815 L 272.994 48.95 L 273.413 49.367 L 273.869 48.987 C 271.405 46.03 267.947 44.539 263.677 44.548 C 259.794 44.543 256.379 45.933 253.554 48.67 C 250.701 51.415 249.268 55.031 249.273 59.37 C 249.268 63.709 250.701 67.324 253.554 70.07 C 256.379 72.807 259.794 74.196 263.676 74.192 C 267.779 74.199 271.276 72.805 274.029 70.04 C 275.867 68.194 276.909 65.637 277.183 62.457 L 277.238 61.812 L 264.269 61.812 L 264.269 58.72 L 280.91 58.72 L 280.91 58.127 L 280.327 58.231 C 280.489 59.131 280.565 59.987 280.565 60.815 L 281.751 60.815 C 281.751 59.913 281.667 58.985 281.494 58.021 L 281.406 57.533 L 263.084 57.533 L 263.084 62.999 L 276.592 62.999 L 276.592 62.406 L 276.002 62.355 C 275.74 65.342 274.791 67.592 273.191 69.201 C 270.644 71.743 267.518 72.997 263.677 73.004 C 260.072 73 257.013 71.756 254.376 69.217 C 251.764 66.687 250.465 63.456 250.458 59.37 C 250.465 55.284 251.764 52.053 254.376 49.523 C 257.013 46.983 260.072 45.74 263.677 45.736 C 267.685 45.745 270.711 47.072 272.96 49.75 L 273.376 50.246 L 276.958 46.654 L 277.342 46.269 L 276.993 45.854 C 275.536 44.115 273.596 42.735 271.211 41.71 C 268.822 40.682 266.3 40.167 263.677 40.167 C 258.407 40.163 253.86 42.018 250.171 45.689 C 246.469 49.354 244.603 53.96 244.608 59.37 C 244.603 64.778 246.469 69.386 250.174 73.053 C 253.86 76.722 258.407 78.575 263.677 78.57 C 269.164 78.575 273.717 76.749 277.171 73.115 L 276.742 72.705 L 277.162 73.125 C 280.232 70.052 281.755 65.901 281.751 60.815 L 281.158 60.815 M 308.48 45.935 L 292.283 45.935 L 292.283 57.23 L 306.889 57.23 L 306.889 61.51 L 292.283 61.51 L 292.283 72.805 L 308.48 72.805 L 308.48 77.181 L 287.718 77.181 L 287.718 41.559 L 308.48 41.559 L 308.48 45.935" fill="rgb(255,255,255)"/><path d=" M 308.48 45.935 L 308.48 45.341 L 291.691 45.341 L 291.691 57.823 L 306.296 57.823 L 306.296 60.915 L 291.691 60.916 L 291.691 73.398 L 307.887 73.398 L 307.887 76.587 L 288.311 76.587 L 288.311 42.153 L 307.887 42.153 L 307.887 45.935 L 308.48 45.935 L 308.48 45.341 L 308.48 45.935 L 309.072 45.935 L 309.072 40.965 L 287.125 40.965 L 287.125 77.775 L 309.072 77.775 L 309.072 72.211 L 292.876 72.211 L 292.876 62.104 L 307.482 62.104 L 307.482 56.636 L 292.876 56.636 L 292.876 46.529 L 309.072 46.529 L 309.072 45.935 L 308.48 45.935 M 327.751 77.181 L 323.178 77.181 L 323.178 45.935 L 313.245 45.935 L 313.245 41.559 L 337.684 41.559 L 337.684 45.935 L 327.751 45.935 L 327.751 77.181" fill="rgb(255,255,255)"/><path d=" M 327.751 77.181 L 327.751 76.587 L 323.77 76.587 L 323.77 45.341 L 313.837 45.341 L 313.837 42.153 L 337.091 42.153 L 337.091 45.341 L 327.158 45.341 L 327.158 77.181 L 327.751 77.181 L 327.751 76.587 L 327.751 77.181 L 328.344 77.181 L 328.344 46.529 L 338.277 46.529 L 338.277 40.965 L 312.652 40.965 L 312.652 46.529 L 322.585 46.529 L 322.585 77.774 L 328.344 77.774 L 328.344 77.181 L 327.751 77.181 M 355.367 77.181 L 355.367 41.559 L 359.935 41.559 L 359.935 77.181 L 355.367 77.181" fill="rgb(255,255,255)"/><path d=" M 355.367 77.181 L 355.959 77.181 L 355.959 42.153 L 359.342 42.153 L 359.342 76.587 L 355.367 76.587 L 355.367 77.181 L 355.959 77.181 L 355.367 77.181 L 355.367 77.775 L 360.527 77.775 L 360.527 40.965 L 354.774 40.965 L 354.774 77.775 L 355.367 77.775 L 355.367 77.181 M 380.206 77.181 L 375.633 77.181 L 375.633 45.935 L 365.7 45.935 L 365.7 41.559 L 390.139 41.559 L 390.139 45.935 L 380.206 45.935 L 380.206 77.181" fill="rgb(255,255,255)"/><path d=" M 380.206 77.181 L 380.206 76.587 L 376.226 76.587 L 376.226 45.341 L 366.293 45.341 L 366.293 42.153 L 389.546 42.153 L 389.546 45.341 L 379.613 45.341 L 379.613 77.181 L 380.206 77.181 L 380.206 76.587 L 380.206 77.181 L 380.799 77.181 L 380.799 46.529 L 390.732 46.529 L 390.732 40.965 L 365.108 40.965 L 365.108 46.529 L 375.04 46.529 L 375.04 77.774 L 380.799 77.774 L 380.799 77.181 L 380.206 77.181 M 413.701 69.595 C 416.333 72.264 419.554 73.598 423.363 73.598 C 427.172 73.598 430.394 72.264 433.023 69.595 C 435.658 66.926 436.977 63.514 436.977 59.37 C 436.977 55.226 435.658 51.814 433.023 49.145 C 430.394 46.475 427.172 45.142 423.363 45.142 C 419.554 45.142 416.333 46.475 413.701 49.145 C 411.072 51.814 409.753 55.226 409.753 59.37 C 409.753 63.514 411.072 66.926 413.701 69.595 Z  M 436.403 72.577 C 432.907 76.179 428.558 77.977 423.363 77.977 C 418.162 77.977 413.816 76.179 410.327 72.577 C 406.828 68.98 405.087 64.577 405.087 59.37 C 405.087 54.163 406.828 49.759 410.327 46.162 C 413.816 42.56 418.162 40.761 423.363 40.761 C 428.531 40.761 432.867 42.57 436.38 46.186 C 439.888 49.801 441.643 54.196 441.643 59.37 C 441.643 64.577 439.892 68.98 436.403 72.577 Z " fill="rgb(255,255,255)"/><path d=" M 413.701 69.595 L 413.279 70.013 C 416.009 72.789 419.415 74.199 423.363 74.192 C 427.308 74.199 430.719 72.789 433.444 70.013 C 436.192 67.234 437.574 63.639 437.57 59.37 C 437.574 55.101 436.192 51.506 433.444 48.727 C 430.719 45.951 427.308 44.541 423.363 44.548 C 419.415 44.541 416.009 45.951 413.279 48.727 C 410.538 51.506 409.153 55.101 409.16 59.37 C 409.153 63.639 410.538 67.234 413.279 70.013 L 413.701 69.595 L 414.122 69.178 C 411.608 66.615 410.35 63.391 410.346 59.37 C 410.35 55.349 411.608 52.125 414.122 49.562 C 416.659 47 419.69 45.743 423.363 45.736 C 427.032 45.743 430.07 47 432.601 49.562 C 435.12 52.125 436.378 55.349 436.382 59.37 C 436.378 63.391 435.12 66.615 432.601 69.178 C 430.07 71.74 427.033 72.997 423.363 73.004 C 419.69 72.997 416.659 71.74 414.122 69.178 L 413.701 69.595 Z  M 436.403 72.577 L 435.979 72.165 C 432.581 75.653 428.424 77.376 423.363 77.383 C 418.299 77.376 414.143 75.653 410.75 72.165 L 410.734 72.146 L 410.75 72.165 C 407.359 68.665 405.685 64.444 405.68 59.37 C 405.685 54.296 407.359 50.075 410.75 46.575 C 414.143 43.087 418.299 41.362 423.363 41.355 C 428.392 41.362 432.538 43.094 435.956 46.601 C 439.36 50.117 441.043 54.33 441.05 59.37 C 441.043 64.444 439.364 68.665 435.979 72.165 L 436.403 72.577 L 436.829 72.99 C 440.422 69.294 442.24 64.709 442.236 59.37 C 442.24 54.062 440.416 49.486 436.806 45.773 C 433.194 42.046 428.67 40.161 423.363 40.167 C 418.028 40.161 413.49 42.037 409.901 45.75 L 409.901 45.747 C 406.301 49.446 404.49 54.031 404.495 59.37 C 404.49 64.709 406.301 69.294 409.901 72.992 L 409.917 73.009 L 409.901 72.99 C 413.49 76.703 418.028 78.575 423.363 78.57 C 428.695 78.575 433.233 76.703 436.829 72.99 L 436.403 72.577 L 436.403 72.577 Z  M 448.056 77.181 L 448.056 41.559 L 453.618 41.559 L 470.902 69.27 L 471.099 69.27 L 470.902 62.405 L 470.902 41.559 L 475.475 41.559 L 475.475 77.181 L 470.706 77.181 L 452.622 48.126 L 452.425 48.126 L 452.622 54.994 L 452.622 77.181 L 448.057 77.181" fill="rgb(255,255,255)"/><path d=" M 448.056 77.181 L 448.649 77.181 L 448.649 42.153 L 453.289 42.153 L 470.573 69.864 L 471.708 69.864 L 471.495 62.397 L 471.495 42.153 L 474.883 42.153 L 474.883 76.587 L 471.034 76.587 L 452.951 47.533 L 451.817 47.533 L 452.03 55.003 L 452.03 76.587 L 448.057 76.587 L 448.057 77.181 L 448.649 77.181 L 448.057 77.181 L 448.057 77.775 L 453.215 77.775 L 453.215 54.984 L 453.018 48.111 L 452.425 48.127 L 452.425 48.72 L 452.622 48.72 L 452.622 48.127 L 452.12 48.442 L 470.377 77.775 L 476.068 77.775 L 476.068 40.965 L 470.31 40.965 L 470.31 62.413 L 470.506 69.286 L 471.099 69.27 L 471.099 68.677 L 470.902 68.677 L 470.902 69.27 L 471.405 68.955 L 453.946 40.965 L 447.464 40.965 L 447.464 77.775 L 448.057 77.775 L 448.057 77.181 M 633.944 178.11 L 645.004 178.11 L 645.004 103.89 L 633.943 103.89 L 633.944 178.11 Z  M 733.565 130.626 L 720.887 162.804 L 720.507 162.804 L 707.349 130.626 L 695.434 130.626 L 715.167 175.6 L 703.917 200.617 L 715.457 200.617 L 745.865 130.626 L 733.565 130.626 Z  M 670.842 169.68 C 667.214 169.68 662.164 167.866 662.164 163.377 C 662.164 157.648 668.459 155.452 673.888 155.452 C 678.755 155.452 681.037 156.502 683.995 157.936 C 683.135 164.81 677.225 169.68 670.842 169.68 L 670.842 169.68 Z  M 672.175 129.002 C 664.167 129.002 655.875 132.536 652.443 140.366 L 662.259 144.471 C 664.357 140.366 668.263 139.028 672.365 139.028 C 678.085 139.028 683.9 142.467 683.995 148.578 L 683.995 149.341 C 681.991 148.195 677.706 146.477 672.46 146.477 C 661.88 146.477 651.103 152.3 651.103 163.186 C 651.103 173.117 659.781 179.515 669.502 179.515 C 676.941 179.515 681.037 176.173 683.615 172.259 L 683.995 172.259 L 683.995 177.987 L 694.67 177.987 L 694.67 149.531 C 694.67 136.356 684.854 129.002 672.175 129.002 L 672.175 129.002 Z  M 603.82 139.661 L 588.089 139.661 L 588.089 114.22 L 603.82 114.22 C 612.089 114.22 616.784 121.078 616.784 126.94 C 616.784 132.692 612.089 139.661 603.82 139.661 Z  M 603.536 103.89 L 577.034 103.89 L 577.034 178.11 L 588.089 178.11 L 588.089 149.99 L 603.536 149.99 C 615.794 149.99 627.844 141.101 627.844 126.94 C 627.844 112.78 615.794 103.89 603.536 103.89 L 603.536 103.89 Z  M 459.02 169.694 C 451.379 169.694 444.981 163.286 444.981 154.485 C 444.981 145.591 451.379 139.086 459.02 139.086 C 466.564 139.086 472.484 145.591 472.484 154.485 C 472.484 163.286 466.564 169.694 459.02 169.694 L 459.02 169.694 Z  M 471.72 134.782 L 471.338 134.782 C 468.856 131.817 464.079 129.139 458.064 129.139 C 445.458 129.139 433.905 140.234 433.905 154.485 C 433.905 168.641 445.458 179.641 458.064 179.641 C 464.079 179.641 468.856 176.962 471.338 173.903 L 471.72 173.903 L 471.72 177.537 C 471.72 187.199 466.564 192.364 458.256 192.364 C 451.476 192.364 447.274 187.484 445.553 183.372 L 435.91 187.389 C 438.679 194.084 446.033 202.31 458.256 202.31 C 471.243 202.31 482.225 194.657 482.225 176.006 L 482.225 130.67 L 471.72 130.67 L 471.72 134.782 Z  M 489.863 178.11 L 500.94 178.11 L 500.94 103.888 L 489.863 103.888 L 489.863 178.11 Z  M 517.27 153.625 C 516.983 143.868 524.814 138.895 530.447 138.895 C 534.843 138.895 538.565 141.094 539.804 144.253 L 517.27 153.625 Z  M 551.648 145.208 C 549.549 139.563 543.147 129.139 530.065 129.139 C 517.078 129.139 506.288 139.373 506.288 154.39 C 506.288 168.546 516.983 179.641 531.306 179.641 C 542.863 179.641 549.549 172.562 552.317 168.45 L 543.722 162.71 C 540.859 166.92 536.942 169.694 531.306 169.694 C 525.673 169.694 521.663 167.11 519.083 162.043 L 552.791 148.077 L 551.648 145.208 Z  M 283.087 136.887 L 283.087 147.599 L 308.679 147.599 C 307.915 153.625 305.909 158.024 302.853 161.085 C 299.13 164.816 293.305 168.928 283.087 168.928 C 267.33 168.928 255.013 156.208 255.013 140.426 C 255.013 124.644 267.33 111.922 283.087 111.922 C 291.587 111.922 297.792 115.27 302.376 119.575 L 309.92 112.019 C 303.523 105.896 295.023 101.21 283.087 101.21 C 261.505 101.21 243.362 118.81 243.362 140.426 C 243.362 162.043 261.505 179.641 283.087 179.641 C 294.738 179.641 303.523 175.816 310.397 168.641 C 317.464 161.563 319.661 151.616 319.661 143.583 C 319.661 141.094 319.471 138.8 319.087 136.887 L 283.087 136.887 Z  M 348.756 169.694 C 341.115 169.694 334.526 163.381 334.526 154.39 C 334.526 145.303 341.115 139.086 348.756 139.086 C 356.394 139.086 362.984 145.303 362.984 154.39 C 362.984 163.381 356.394 169.694 348.756 169.694 Z  M 348.756 129.139 C 334.813 129.139 323.449 139.756 323.449 154.39 C 323.449 168.928 334.813 179.641 348.756 179.641 C 362.697 179.641 374.061 168.928 374.061 154.39 C 374.061 139.756 362.697 129.139 348.756 129.139 Z  M 403.959 169.694 C 396.321 169.694 389.731 163.381 389.731 154.39 C 389.731 145.303 396.321 139.086 403.96 139.086 C 411.598 139.086 418.188 145.303 418.188 154.39 C 418.188 163.381 411.598 169.694 403.96 169.694 L 403.959 169.694 Z  M 403.959 129.139 C 390.016 129.139 378.655 139.756 378.655 154.39 C 378.655 168.928 390.016 179.641 403.96 179.641 C 417.901 179.641 429.265 168.928 429.265 154.39 C 429.265 139.756 417.901 129.139 403.96 129.139 L 403.959 129.139 Z " fill="rgb(255,255,255)"/><path d=" M 62.379 45.188 C 60.39 46.986 59.202 49.984 59.202 53.964 L 59.202 53.064 L 59.202 184.397 L 59.202 183.532 C 59.202 187.208 60.221 190.046 61.946 191.874 L 62.386 192.296 L 62.386 192.298 C 63.782 193.56 65.572 194.23 67.623 194.228 C 69.628 194.228 71.884 193.588 74.264 192.236 L 160.301 143.272 L 189.855 126.451 C 193.608 124.315 195.715 121.56 196.067 118.754 L 196.067 118.742 C 195.715 115.929 193.608 113.176 189.855 111.04 L 160.299 94.222 L 74.264 45.258 C 71.879 43.904 69.622 43.261 67.612 43.261 C 65.563 43.261 63.775 43.929 62.379 45.188 L 62.379 45.188 Z " fill="rgb(0,193,255)"/><linearGradient id="_lgradient_1" x1="0.6125648504920911" y1="0.9556725923944193" x2="0.41301849387686085" y2="0.21881394610154947" gradientTransform="matrix(76.616,0,0,-147.108,59.202,192.296)" gradientUnits="userSpaceOnUse"><stop offset="0%" stop-opacity="1" style="stop-color:rgb(0,160,255)"/><stop offset="0.657%" stop-opacity="1" style="stop-color:rgb(0,161,255)"/><stop offset="26.009999999999998%" stop-opacity="1" style="stop-color:rgb(0,190,255)"/><stop offset="51.22%" stop-opacity="1" style="stop-color:rgb(0,210,255)"/><stop offset="76.04%" stop-opacity="1" style="stop-color:rgb(0,223,255)"/><stop offset="100%" stop-opacity="1" style="stop-color:rgb(0,227,255)"/></linearGradient><path d=" M 62.386 192.296 L 61.946 191.874 C 60.221 190.046 59.202 187.208 59.202 183.532 L 59.202 184.397 L 59.202 53.097 L 59.202 53.964 C 59.202 49.984 60.39 46.986 62.379 45.188 L 135.818 118.745 L 62.386 192.296 Z " fill="url(#_lgradient_1)"/><linearGradient id="_lgradient_2" x1="1.0759005943260025" y1="0.5086823062737652" x2="-1.3046409487072745" y2="0.5086823062737649" gradientTransform="matrix(60.249,0,0,-49.05,135.818,143.272)" gradientUnits="userSpaceOnUse"><stop offset="0%" stop-opacity="1" style="stop-color:rgb(255,224,0)"/><stop offset="40.87%" stop-opacity="1" style="stop-color:rgb(255,189,0)"/><stop offset="77.54%" stop-opacity="1" style="stop-color:rgb(255,165,0)"/><stop offset="100%" stop-opacity="1" style="stop-color:rgb(255,156,0)"/></linearGradient><path d=" M 160.301 143.272 L 135.818 118.745 L 160.299 94.222 L 189.855 111.04 C 193.608 113.176 195.715 115.929 196.067 118.742 L 196.067 118.753 C 195.715 121.56 193.608 124.315 189.855 126.451 L 160.302 143.271" fill="url(#_lgradient_2)"/><linearGradient id="_lgradient_3" x1="0.8672486323058145" y1="0.6910679099011277" x2="-0.5047971605153584" y2="-0.1196527632910862" gradientTransform="matrix(97.915,0,0,-75.483,62.386,194.228)" gradientUnits="userSpaceOnUse"><stop offset="0%" stop-opacity="1" style="stop-color:rgb(255,58,68)"/><stop offset="100%" stop-opacity="1" style="stop-color:rgb(195,17,98)"/></linearGradient><path d=" M 67.623 194.228 C 65.572 194.23 63.782 193.559 62.386 192.298 L 62.386 192.296 L 135.819 118.744 L 160.302 143.271 L 74.264 192.236 C 71.884 193.588 69.628 194.228 67.623 194.228 Z " fill="url(#_lgradient_3)"/><linearGradient id="_lgradient_4" x1="-0.19329431396752472" y1="1.118937320164865" x2="0.41841094273094137" y2="0.756946868187002" gradientTransform="matrix(97.921,0,0,-75.484,62.379,118.745)" gradientUnits="userSpaceOnUse"><stop offset="0%" stop-opacity="1" style="stop-color:rgb(50,160,113)"/><stop offset="6.849999999999999%" stop-opacity="1" style="stop-color:rgb(45,167,113)"/><stop offset="47.62%" stop-opacity="1" style="stop-color:rgb(21,207,116)"/><stop offset="80.09%" stop-opacity="1" style="stop-color:rgb(6,231,117)"/><stop offset="100%" stop-opacity="1" style="stop-color:rgb(0,240,118)"/></linearGradient><path d=" M 135.818 118.745 L 62.379 45.189 C 63.775 43.929 65.562 43.261 67.611 43.261 C 69.621 43.261 71.879 43.904 74.264 45.258 L 160.299 94.222 L 135.818 118.745" fill="url(#_lgradient_4)"/><linearGradient id="_lgradient_5" x1="11.543672689195054" y1="18.646007349447512" x2="-6.8053691301052925" y2="13.599933888918878" gradientTransform="matrix(7.352,0,0,-1.932,62.384,195.097)" gradientUnits="userSpaceOnUse"><stop offset="0%" stop-opacity="1" style="stop-color:rgb(204,46,54)"/><stop offset="100%" stop-opacity="1" style="stop-color:rgb(156,14,78)"/></linearGradient><path d=" M 67.626 195.097 C 65.575 195.097 63.782 194.427 62.386 193.166 L 62.384 193.168 C 72.095 194.335 70.031 194.977 68.168 195.084" fill="url(#_lgradient_5)"/><linearGradient id="_lgradient_6" x1="3.073144620735898" y1="15.317729218106997" x2="1.7161590599563055" y2="3.9496658193499563" gradientTransform="matrix(3.183,0,0,-9.207,59.202,192.739)" gradientUnits="userSpaceOnUse"><stop offset="0%" stop-opacity="1" style="stop-color:rgb(0,141,224)"/><stop offset="0.657%" stop-opacity="1" style="stop-color:rgb(0,141,224)"/><stop offset="26.009999999999998%" stop-opacity="1" style="stop-color:rgb(0,167,224)"/><stop offset="51.22%" stop-opacity="1" style="stop-color:rgb(0,184,224)"/><stop offset="76.04%" stop-opacity="1" style="stop-color:rgb(0,196,224)"/><stop offset="100%" stop-opacity="1" style="stop-color:rgb(0,199,224)"/></linearGradient><path d=" M 61.946 192.739 C 60.221 190.911 59.202 188.075 59.202 184.397 L 59.202 183.532 C 59.202 187.208 60.221 190.046 61.946 191.874 L 62.386 192.296 L 61.946 192.739 Z " fill="url(#_lgradient_6)"/><linearGradient id="_lgradient_7" x1="1.1278618590910443" y1="1.000216591598463" x2="-2.8822542156306876" y2="1.0002165915984627" gradientTransform="matrix(35.766,0,0,-25.07,160.301,143.824)" gradientUnits="userSpaceOnUse"><stop offset="0%" stop-opacity="1" style="stop-color:rgb(224,197,0)"/><stop offset="40.87%" stop-opacity="1" style="stop-color:rgb(224,166,0)"/><stop offset="77.54%" stop-opacity="1" style="stop-color:rgb(224,145,0)"/><stop offset="100%" stop-opacity="1" style="stop-color:rgb(224,137,0)"/></linearGradient><path d=" M 160.853 143.824 L 160.301 143.271 L 189.855 126.451 C 193.608 124.315 195.715 121.56 196.067 118.753 C 196.067 119.783 195.838 120.813 195.382 121.815 C 194.463 123.835 192.62 125.744 189.855 127.318 L 160.853 143.824" fill="url(#_lgradient_7)"/><linearGradient id="_lgradient_8" x1="1.127852130127636" y1="-0.00023335646177422096" x2="-2.8819810313831096" y2="-0.00023335646177471202" gradientTransform="matrix(35.768,0,0,-25.073,160.299,118.743)" gradientUnits="userSpaceOnUse"><stop offset="0%" stop-opacity="1" style="stop-color:rgb(255,232,64)"/><stop offset="40.87%" stop-opacity="1" style="stop-color:rgb(255,206,64)"/><stop offset="77.54%" stop-opacity="1" style="stop-color:rgb(255,188,64)"/><stop offset="100%" stop-opacity="1" style="stop-color:rgb(255,181,64)"/></linearGradient><path d=" M 196.067 118.743 C 195.715 115.929 193.608 113.177 189.855 111.04 L 160.299 94.222 L 160.85 93.67 L 160.853 93.67 L 189.855 110.175 C 193.993 112.532 196.065 115.637 196.067 118.743" fill="url(#_lgradient_8)"/><linearGradient id="_lgradient_9" x1="3.0608028374632505" y1="0.23383563086548487" x2="1.708561486934837" y2="-10.663440636147627" gradientTransform="matrix(3.177,0,0,-9.212,59.202,53.964)" gradientUnits="userSpaceOnUse"><stop offset="0%" stop-opacity="1" style="stop-color:rgb(64,184,255)"/><stop offset="0.657%" stop-opacity="1" style="stop-color:rgb(64,185,255)"/><stop offset="26.009999999999998%" stop-opacity="1" style="stop-color:rgb(64,206,255)"/><stop offset="51.22%" stop-opacity="1" style="stop-color:rgb(64,221,255)"/><stop offset="76.04%" stop-opacity="1" style="stop-color:rgb(64,231,255)"/><stop offset="100%" stop-opacity="1" style="stop-color:rgb(64,234,255)"/></linearGradient><path d=" M 59.202 53.964 L 59.202 53.057 C 59.202 52.73 59.211 52.41 59.228 52.099 L 59.228 52.085 C 59.228 52.081 59.228 52.076 59.23 52.072 L 59.23 52.037 C 59.408 48.871 60.39 46.401 61.946 44.752 L 62.379 45.188 C 60.39 46.986 59.202 49.984 59.202 53.964 Z " fill="url(#_lgradient_9)"/><linearGradient id="_lgradient_10" x1="-0.18912877157095997" y1="0.8709219024880622" x2="0.42332965369809195" y2="0.7024795713458493" gradientTransform="matrix(98.353,0,0,-50.961,61.946,94.222)" gradientUnits="userSpaceOnUse"><stop offset="0%" stop-opacity="1" style="stop-color:rgb(101,184,149)"/><stop offset="6.849999999999999%" stop-opacity="1" style="stop-color:rgb(98,189,149)"/><stop offset="47.62%" stop-opacity="1" style="stop-color:rgb(80,219,151)"/><stop offset="80.09%" stop-opacity="1" style="stop-color:rgb(68,237,152)"/><stop offset="100%" stop-opacity="1" style="stop-color:rgb(64,244,152)"/></linearGradient><path d=" M 160.299 94.222 L 74.264 45.257 C 71.879 43.903 69.622 43.261 67.612 43.261 C 65.563 43.261 63.775 43.929 62.379 45.188 L 61.946 44.752" fill="url(#_lgradient_10)"/></g></g></svg>