<?xml version="1.0" encoding="UTF-8" standalone="no"?><!-- Generator: Gravit.io --><svg xmlns="http://www.w3.org/2000/svg" xmlns:xlink="http://www.w3.org/1999/xlink" style="isolation:isolate" viewBox="0 0 800.2 237.1" width="800.2pt" height="237.1pt"><defs><clipPath id="_clipPath_PyODyhfPizFuCTrcvUoWi5zAMIINlViq"><rect width="800.2" height="237.1"/></clipPath></defs><g clip-path="url(#_clipPath_PyODyhfPizFuCTrcvUoWi5zAMIINlViq)"><g><path d=" M 794.898 209.109 C 794.898 215.135 792.502 220.915 788.237 225.174 C 783.972 229.434 778.188 231.824 772.16 231.817 L 28.04 231.817 C 15.481 231.83 5.288 221.664 5.272 209.109 L 5.272 28.015 C 5.288 15.455 15.476 5.28 28.04 5.277 L 772.154 5.277 C 778.186 5.277 783.97 7.673 788.235 11.937 C 792.499 16.201 794.894 21.985 794.892 28.015 L 794.898 209.109 Z " fill="rgb(255,255,255)"/><path d=" M 772.16 237.1 L 28.04 237.1 C 12.57 237.097 0.023 224.574 -0.006 209.109 L -0.006 28.021 C 0.017 12.548 12.563 0.013 28.04 0 L 772.154 0 C 787.629 0.019 800.171 12.551 800.2 28.021 L 800.2 209.109 C 800.212 224.548 787.609 237.1 772.16 237.1 Z " fill="rgb(166,166,166)"/><path d=" M 794.898 209.109 C 794.898 215.135 792.502 220.915 788.237 225.174 C 783.972 229.434 778.188 231.824 772.16 231.817 L 28.04 231.817 C 15.481 231.83 5.288 221.664 5.272 209.109 L 5.272 28.015 C 5.288 15.455 15.476 5.28 28.04 5.277 L 772.154 5.277 C 778.186 5.277 783.97 7.673 788.235 11.937 C 792.499 16.201 794.894 21.985 794.892 28.015 L 794.898 209.109 Z " fill="rgb(0,0,0)"/><path d=" M 178.674 117.302 C 178.502 98.192 194.325 88.895 195.049 88.463 C 186.087 75.401 172.198 73.616 167.317 73.474 C 155.651 72.246 144.335 80.452 138.393 80.452 C 132.332 80.452 123.18 73.592 113.318 73.794 C 100.626 73.99 88.753 81.336 82.241 92.743 C 68.802 116.003 78.825 150.185 91.7 168.986 C 98.141 178.2 105.667 188.475 115.518 188.114 C 125.155 187.722 128.755 181.977 140.385 181.977 C 151.909 181.977 155.289 188.114 165.336 187.882 C 175.679 187.722 182.191 178.633 188.406 169.342 C 195.849 158.794 198.838 148.394 198.957 147.861 C 198.72 147.778 178.876 140.2 178.674 117.302 Z  M 159.696 61.106 C 164.879 54.625 168.426 45.808 167.441 36.861 C 159.939 37.193 150.557 42.049 145.154 48.388 C 140.374 53.973 136.103 63.127 137.207 71.737 C 145.634 72.365 154.287 67.485 159.696 61.106 Z " fill="rgb(255,255,255)"/><linearGradient id="_lgradient_0" x1="0.499984471876998" y1="1.0026550826477283" x2="0.49998447187699824" y2="-2.603827937682862" gradientTransform="matrix(426.62,0,0,237.1,373.587,0)" gradientUnits="userSpaceOnUse"><stop offset="0%" stop-opacity="0.1" style="stop-color:rgb(26,26,26)"/><stop offset="12.3%" stop-opacity="0.151" style="stop-color:rgb(33,33,33)"/><stop offset="30.8%" stop-opacity="0.227" style="stop-color:rgb(53,53,53)"/><stop offset="53.2%" stop-opacity="0.318" style="stop-color:rgb(87,87,87)"/><stop offset="78.3%" stop-opacity="0.421" style="stop-color:rgb(133,133,133)"/><stop offset="100%" stop-opacity="0.51" style="stop-color:rgb(179,179,179)"/></linearGradient><path d=" M 772.16 0 L 373.587 0 L 529.701 237.1 L 772.16 237.1 C 787.633 237.087 800.177 224.559 800.206 209.091 L 800.206 28.021 C 800.18 12.549 787.636 0.016 772.16 0 L 772.16 0 Z " fill="url(#_lgradient_0)"/><g><path d=" M 318.265 186.791 L 304.796 186.791 L 297.419 163.614 L 271.774 163.614 L 264.746 186.791 L 251.634 186.791 L 277.047 107.886 L 292.739 107.886 L 318.265 186.791 Z  M 295.195 153.891 L 288.523 133.287 C 287.817 131.182 286.488 126.225 284.543 118.423 L 284.306 118.423 C 283.523 121.778 282.272 126.735 280.558 133.287 L 273.998 153.891 L 295.195 153.891 Z  M 383.491 157.644 C 383.491 167.32 380.864 174.969 375.603 180.584 C 370.894 185.582 365.041 188.078 358.06 188.078 C 350.522 188.078 345.102 185.392 341.81 180.008 L 341.81 209.862 L 329.166 209.862 L 329.166 148.596 C 329.166 142.519 329.006 136.287 328.697 129.895 L 339.817 129.895 L 340.523 138.914 L 340.76 138.914 C 344.977 132.119 351.376 128.721 359.964 128.721 C 366.677 128.721 372.282 131.372 376.766 136.678 C 381.243 141.997 383.491 148.981 383.491 157.644 Z  M 370.61 158.106 C 370.61 152.568 369.364 148.003 366.861 144.404 C 364.127 140.663 360.456 138.789 355.854 138.789 C 352.734 138.789 349.9 139.833 347.367 141.89 C 344.829 143.965 343.168 146.675 342.391 150.031 C 342.044 151.286 341.847 152.577 341.804 153.879 L 341.804 163.371 C 341.804 167.504 343.073 170.996 345.612 173.854 C 348.15 176.7 351.447 178.129 355.504 178.129 C 360.266 178.129 363.973 176.285 366.624 172.627 C 369.281 168.957 370.61 164.118 370.61 158.106 Z  M 448.948 157.644 C 448.948 167.32 446.321 174.969 441.06 180.584 C 436.346 185.582 430.498 188.078 423.511 188.078 C 415.974 188.078 410.553 185.392 407.261 180.008 L 407.261 209.862 L 394.617 209.862 L 394.617 148.596 C 394.617 142.519 394.457 136.287 394.149 129.895 L 405.269 129.895 L 405.974 138.914 L 406.212 138.914 C 410.422 132.119 416.822 128.721 425.415 128.721 C 432.123 128.721 437.727 131.372 442.223 136.678 C 446.695 141.997 448.948 148.981 448.948 157.644 L 448.948 157.644 Z  M 436.061 158.106 C 436.061 152.568 434.809 148.003 432.307 144.404 C 429.573 140.663 425.913 138.789 421.311 138.789 C 418.192 138.789 415.357 139.833 412.812 141.89 C 410.274 143.965 408.619 146.675 407.843 150.031 C 407.457 151.596 407.249 152.871 407.249 153.879 L 407.249 163.371 C 407.249 167.504 408.525 170.996 411.051 173.854 C 413.589 176.694 416.887 178.129 420.955 178.129 C 425.724 178.129 429.43 176.285 432.075 172.627 C 434.732 168.957 436.061 164.118 436.061 158.106 L 436.061 158.106 Z  M 522.133 164.658 C 522.133 171.376 519.785 176.836 515.117 181.052 C 509.981 185.653 502.811 187.959 493.618 187.959 C 485.126 187.959 478.317 186.323 473.181 183.044 L 476.105 172.508 C 481.65 175.793 487.741 177.429 494.372 177.429 C 499.14 177.429 502.847 176.35 505.492 174.21 C 508.143 172.063 509.483 169.194 509.483 165.613 C 509.483 162.405 508.374 159.719 506.197 157.531 C 504.009 155.349 500.391 153.315 495.309 151.448 C 481.49 146.295 474.575 138.759 474.575 128.846 C 474.575 122.371 477.018 117.071 481.893 112.926 C 486.768 108.788 493.233 106.718 501.275 106.718 C 508.457 106.718 514.441 107.969 519.192 110.466 L 516.019 120.77 C 511.547 118.351 506.5 117.142 500.854 117.142 C 496.394 117.142 492.895 118.239 490.392 120.421 C 488.287 122.371 487.219 124.749 487.219 127.571 C 487.219 130.684 488.435 133.269 490.855 135.297 C 492.954 137.165 496.785 139.198 502.325 141.38 C 509.121 144.119 514.115 147.309 517.312 150.973 C 520.532 154.638 522.133 159.209 522.133 164.658 Z  M 564.046 139.382 L 550.108 139.382 L 550.108 167.006 C 550.108 174.032 552.564 177.536 557.486 177.536 C 559.746 177.536 561.62 177.346 563.103 176.949 L 563.452 186.548 C 560.962 187.479 557.682 187.948 553.619 187.948 C 548.626 187.948 544.723 186.424 541.906 183.376 C 539.101 180.329 537.689 175.224 537.689 168.038 L 537.689 139.358 L 529.386 139.358 L 529.386 129.872 L 537.689 129.872 L 537.689 119.454 L 550.108 115.707 L 550.108 129.872 L 564.046 129.872 L 564.046 139.382 Z  M 626.804 157.875 C 626.804 166.62 624.301 173.801 619.308 179.416 C 614.083 185.196 607.132 188.078 598.467 188.078 C 590.105 188.078 583.457 185.309 578.499 179.777 C 573.541 174.233 571.062 167.249 571.062 158.824 C 571.062 150.007 573.624 142.785 578.73 137.17 C 583.848 131.55 590.74 128.739 599.404 128.739 C 607.755 128.739 614.462 131.514 619.539 137.052 C 624.39 142.424 626.804 149.361 626.804 157.875 Z  M 613.697 158.166 C 613.697 152.954 612.571 148.483 610.311 144.742 C 607.66 140.224 603.864 137.965 598.948 137.965 C 593.883 137.965 589.998 140.224 587.353 144.742 C 585.088 148.483 583.961 153.031 583.961 158.403 C 583.961 163.62 585.088 168.103 587.353 171.832 C 590.087 176.35 593.901 178.609 598.841 178.609 C 603.674 178.609 607.464 176.303 610.204 171.72 C 612.529 167.889 613.697 163.389 613.697 158.166 Z  M 667.922 141.013 C 666.607 140.775 665.273 140.658 663.936 140.663 C 659.488 140.663 656.049 142.335 653.629 145.702 C 651.529 148.667 650.474 152.414 650.474 156.938 L 650.474 186.791 L 637.829 186.791 L 637.829 147.813 C 637.841 141.841 637.718 135.868 637.462 129.901 L 648.475 129.901 L 648.938 140.787 L 649.288 140.787 C 650.628 137.046 652.727 134.028 655.61 131.769 C 658.248 129.795 661.454 128.726 664.749 128.721 C 665.917 128.721 666.973 128.804 667.91 128.953 L 667.922 141.013 Z  M 724.471 155.652 C 724.503 157.573 724.348 159.493 724.009 161.385 L 686.076 161.385 C 686.218 167.006 688.057 171.31 691.579 174.275 C 694.776 176.919 698.91 178.248 703.986 178.248 C 709.603 178.248 714.727 177.358 719.335 175.562 L 721.316 184.331 C 715.931 186.679 709.573 187.847 702.237 187.847 C 693.412 187.847 686.485 185.25 681.444 180.068 C 676.415 174.88 673.894 167.907 673.894 159.173 C 673.894 150.6 676.237 143.455 680.928 137.757 C 685.839 131.674 692.475 128.632 700.825 128.632 C 709.028 128.632 715.237 131.674 719.454 137.757 C 722.793 142.578 724.471 148.554 724.471 155.652 L 724.471 155.652 Z  M 712.414 152.373 C 712.503 148.62 711.673 145.388 709.959 142.655 C 707.77 139.133 704.402 137.378 699.888 137.378 C 695.755 137.378 692.386 139.091 689.824 142.53 C 687.719 145.264 686.467 148.548 686.082 152.361 L 712.414 152.373 Z " fill="rgb(255,255,255)"/></g><g><path d=" M 268.127 79.99 C 264.61 79.99 261.568 79.818 259.035 79.527 L 259.035 41.379 C 262.577 40.832 266.156 40.563 269.74 40.573 C 284.241 40.573 290.919 47.706 290.919 59.333 C 290.919 72.744 283.031 79.99 268.127 79.99 Z  M 270.25 45.464 C 268.293 45.464 266.626 45.583 265.245 45.868 L 265.245 74.867 C 265.992 74.986 267.427 75.039 269.444 75.039 C 278.945 75.039 284.353 69.632 284.353 59.505 C 284.353 50.475 279.461 45.464 270.25 45.464 Z  M 311.729 80.28 C 303.557 80.28 298.261 74.179 298.261 65.896 C 298.261 57.263 303.67 51.109 312.192 51.109 C 320.246 51.109 325.661 56.92 325.661 65.44 C 325.661 74.179 320.08 80.28 311.729 80.28 Z  M 311.967 55.651 C 307.477 55.651 304.601 59.849 304.601 65.718 C 304.601 71.476 307.536 75.673 311.907 75.673 C 316.278 75.673 319.214 71.185 319.214 65.6 C 319.214 59.908 316.338 55.651 311.967 55.651 Z  M 372.264 51.684 L 363.516 79.646 L 357.817 79.646 L 354.193 67.503 C 353.292 64.533 352.542 61.519 351.946 58.473 L 351.827 58.473 C 351.37 61.521 350.504 64.574 349.585 67.503 L 345.73 79.646 L 339.972 79.646 L 331.74 51.684 L 338.127 51.684 L 341.294 64.977 C 342.041 68.143 342.67 71.132 343.192 73.954 L 343.311 73.954 C 343.767 71.6 344.514 68.659 345.612 65.037 L 349.585 51.69 L 354.65 51.69 L 358.452 64.752 C 359.371 67.918 360.118 71.025 360.699 73.96 L 360.865 73.96 C 361.269 71.084 361.903 68.031 362.763 64.752 L 366.162 51.69 L 372.264 51.684 Z  M 404.468 79.646 L 398.253 79.646 L 398.253 63.59 C 398.253 58.645 396.355 56.167 392.612 56.167 C 388.93 56.167 386.397 59.333 386.397 63.015 L 386.397 79.646 L 380.182 79.646 L 380.182 59.677 C 380.182 57.204 380.122 54.554 379.95 51.678 L 385.419 51.678 L 385.709 55.995 L 385.881 55.995 C 387.554 53.006 390.946 51.109 394.748 51.109 C 400.619 51.109 404.474 55.597 404.474 62.902 L 404.468 79.646 Z  M 421.608 79.646 L 415.386 79.646 L 415.386 38.854 L 421.608 38.854 L 421.608 79.646 Z  M 444.269 80.28 C 436.102 80.28 430.8 74.179 430.8 65.896 C 430.8 57.263 436.209 51.109 444.726 51.109 C 452.785 51.109 458.194 56.92 458.194 65.44 C 458.2 74.179 452.613 80.28 444.269 80.28 Z  M 444.5 55.651 C 440.011 55.651 437.134 59.849 437.134 65.718 C 437.134 71.476 440.076 75.673 444.435 75.673 C 448.812 75.673 451.742 71.185 451.742 65.6 C 451.748 59.908 448.877 55.651 444.5 55.651 L 444.5 55.651 Z  M 482.7 79.646 L 482.249 76.426 L 482.083 76.426 C 480.185 79.017 477.416 80.28 473.905 80.28 C 468.893 80.28 465.335 76.77 465.335 72.051 C 465.335 65.149 471.319 61.58 481.68 61.58 L 481.68 61.064 C 481.68 57.382 479.729 55.538 475.874 55.538 C 473.116 55.538 470.696 56.232 468.567 57.613 L 467.304 53.528 C 469.89 51.915 473.116 51.109 476.906 51.109 C 484.212 51.109 487.901 54.963 487.901 62.677 L 487.901 72.976 C 487.901 75.798 488.026 77.986 488.304 79.652 L 482.7 79.646 L 482.7 79.646 Z  M 481.846 65.718 C 474.943 65.718 471.479 67.39 471.479 71.357 C 471.479 74.292 473.264 75.727 475.743 75.727 C 478.904 75.727 481.846 73.314 481.846 70.035 L 481.846 65.718 L 481.846 65.718 Z  M 518.083 79.646 L 517.792 75.158 L 517.62 75.158 C 515.835 78.549 512.834 80.28 508.641 80.28 C 501.898 80.28 496.904 74.351 496.904 66.009 C 496.904 57.263 502.081 51.103 509.151 51.103 C 512.893 51.103 515.544 52.366 517.039 54.904 L 517.163 54.904 L 517.163 38.854 L 523.385 38.854 L 523.385 72.11 C 523.385 74.814 523.45 77.345 523.616 79.646 L 518.083 79.646 Z  M 517.163 63.193 C 517.163 59.279 514.572 55.941 510.616 55.941 C 506.008 55.941 503.191 60.026 503.191 65.778 C 503.191 71.416 506.114 75.276 510.491 75.276 C 514.4 75.276 517.163 71.879 517.163 67.853 L 517.163 63.193 Z  M 562.83 80.28 C 554.663 80.28 549.367 74.179 549.367 65.896 C 549.367 57.263 554.776 51.109 563.292 51.109 C 571.352 51.109 576.761 56.92 576.761 65.44 C 576.767 74.179 571.186 80.28 562.83 80.28 Z  M 563.061 55.651 C 558.577 55.651 555.701 59.849 555.701 65.718 C 555.701 71.476 558.637 75.673 563.002 75.673 C 567.379 75.673 570.308 71.185 570.308 65.6 C 570.32 59.908 567.444 55.651 563.061 55.651 Z  M 610.186 79.646 L 603.965 79.646 L 603.965 63.59 C 603.965 58.645 602.067 56.167 598.325 56.167 C 594.642 56.167 592.116 59.333 592.116 63.015 L 592.116 79.646 L 585.894 79.646 L 585.894 59.677 C 585.894 57.204 585.835 54.554 585.663 51.678 L 591.131 51.678 L 591.422 55.995 L 591.594 55.995 C 593.26 53.006 596.658 51.103 600.454 51.103 C 606.326 51.103 610.186 55.591 610.186 62.896 L 610.186 79.646 Z  M 652.004 56.344 L 645.166 56.344 L 645.166 69.922 C 645.166 73.379 646.364 75.104 648.783 75.104 C 649.881 75.104 650.8 74.986 651.541 74.814 L 651.713 79.533 C 650.509 79.996 648.896 80.227 646.892 80.227 C 641.993 80.227 639.063 77.523 639.063 70.444 L 639.063 56.344 L 634.983 56.344 L 634.983 51.684 L 639.063 51.684 L 639.063 46.561 L 645.166 44.717 L 645.166 51.678 L 652.004 51.678 L 652.004 56.344 Z  M 684.907 79.646 L 678.698 79.646 L 678.698 63.708 C 678.698 58.704 676.806 56.173 673.058 56.173 C 669.837 56.173 666.837 58.36 666.837 62.789 L 666.837 79.646 L 660.627 79.646 L 660.627 38.854 L 666.837 38.854 L 666.837 55.651 L 666.961 55.651 C 668.918 52.603 671.753 51.103 675.371 51.103 C 681.29 51.103 684.907 55.704 684.907 63.015 L 684.907 79.646 L 684.907 79.646 Z  M 718.618 67.159 L 699.965 67.159 C 700.084 72.454 703.589 75.442 708.778 75.442 C 711.536 75.442 714.075 74.98 716.316 74.12 L 717.283 78.436 C 714.638 79.587 711.524 80.162 707.901 80.162 C 699.153 80.162 693.975 74.636 693.975 66.068 C 693.975 57.495 699.278 51.05 707.201 51.05 C 714.347 51.05 718.831 56.344 718.831 64.343 C 718.871 65.287 718.8 66.232 718.618 67.159 L 718.618 67.159 Z  M 712.918 62.73 C 712.918 58.414 710.742 55.366 706.768 55.366 C 703.198 55.366 700.375 58.473 699.971 62.73 L 712.918 62.73 Z " fill="rgb(255,255,255)"/></g></g></g></svg>